<?xml version="1.0" encoding="UTF-8" standalone="no"?>
<!-- Generator: Adobe Illustrator 17.1.0, SVG Export Plug-In . SVG Version: 6.00 Build 0)  -->

<svg
   xmlns:dc="http://purl.org/dc/elements/1.1/"
   xmlns:cc="http://creativecommons.org/ns#"
   xmlns:rdf="http://www.w3.org/1999/02/22-rdf-syntax-ns#"
   xmlns:svg="http://www.w3.org/2000/svg"
   xmlns="http://www.w3.org/2000/svg"
   xmlns:sodipodi="http://sodipodi.sourceforge.net/DTD/sodipodi-0.dtd"
   xmlns:inkscape="http://www.inkscape.org/namespaces/inkscape"
   version="1.1"
   x="0px"
   y="0px"
   viewBox="0 0 225 126"
   enable-background="new 0 0 225 126"
   xml:space="preserve"
   id="svg2"
   inkscape:version="0.91 r13725"
   sodipodi:docname="hero.svg"><metadata
     id="metadata31"><rdf:RDF><cc:Work
         rdf:about=""><dc:format>image/svg+xml</dc:format><dc:type
           rdf:resource="http://purl.org/dc/dcmitype/StillImage" /></cc:Work></rdf:RDF></metadata><defs
     id="defs29" /><sodipodi:namedview
     pagecolor="#ffffff"
     bordercolor="#666666"
     borderopacity="1"
     objecttolerance="10"
     gridtolerance="10"
     guidetolerance="10"
     inkscape:pageopacity="0"
     inkscape:pageshadow="2"
     inkscape:window-width="1871"
     inkscape:window-height="1062"
     id="namedview27"
     showgrid="true"
     showguides="true"
     inkscape:guide-bbox="true"
     inkscape:zoom="5.2977778"
     inkscape:cx="117.77164"
     inkscape:cy="54.756301"
     inkscape:window-x="49"
     inkscape:window-y="18"
     inkscape:window-maximized="1"
     inkscape:current-layer="art"
     inkscape:snap-grids="false"
     inkscape:snap-page="false"><inkscape:grid
       type="xygrid"
       id="grid4173" /></sodipodi:namedview><g
     id="background"
     display="none"><rect
       display="inline"
       fill="#B0BEC5"
       width="225"
       height="126"
       id="rect5" /></g><g
     id="label" /><g
     id="art"><g
       id="ic_x5F_add_x0D_" /><g
       id="g4174"
       transform="translate(-65.876678,16.044463)"><circle
         r="3.4920301"
         cy="41.86787"
         cx="168.04906"
         id="circle4165"
         style="fill:#000000;fill-opacity:1;stroke:#000000;stroke-width:2.20000005;stroke-miterlimit:4;stroke-dasharray:none;stroke-opacity:1" /><path
         sodipodi:nodetypes="cccccccccc"
         inkscape:connector-curvature="0"
         d="m 197.43792,59.757548 -103.05537,0 0,-33.999997 103.05537,0 z m -101.690398,-2 100.325428,0 0,-29.999997 -53.56197,15.666946 z"
         id="path9" /></g><polygon
       id="polygon11"
       points="75.8,63.6 71.3,56.8 66,64.8 60.6,56.8 55.3,64.8 49.2,55.6 50.8,54.4 55.3,61.2 60.6,53.2 66,61.2 71.3,53.2 77.4,62.4 "
       transform="translate(103.4396,-21.262584)" /><polygon
       transform="translate(103.4396,0.4446316)"
       points="66,64.8 60.6,56.8 55.3,64.8 49.2,55.6 50.8,54.4 55.3,61.2 60.6,53.2 66,61.2 71.3,53.2 77.4,62.4 75.8,63.6 71.3,56.8 "
       id="polygon4178" /><polygon
       id="polygon4180"
       points="66,64.8 60.6,56.8 55.3,64.8 49.2,55.6 50.8,54.4 55.3,61.2 60.6,53.2 66,61.2 71.3,53.2 77.4,62.4 75.8,63.6 71.3,56.8 "
       transform="translate(103.4396,22.151845)" /></g><g
     id="Guides" /></svg>